<svg width="138" height="129" viewBox="0 0 138 129" fill="none" xmlns="http://www.w3.org/2000/svg">
<path d="M136.5 64.5C136.5 99.2003 106.376 127.5 69 127.5C31.6239 127.5 1.5 99.2003 1.5 64.5C1.5 29.7997 31.6239 1.5 69 1.5C106.376 1.5 136.5 29.7997 136.5 64.5Z" fill="white" stroke="black" stroke-width="3"/>
<path d="M23.5 48.5C17.1 48.1 11.5 54.3333 9.5 57.5C11.6667 58.6667 17.8 61.1 25 61.5C21.1667 65.3333 14.5 75 18.5 83C25.6667 77.5 40 66.4 40 66C40.5 65.6667 41.8 64.4 43 62C44.1667 62.3514 47.2 62.8434 50 62C57.8333 59.6667 73.5 54.8 73.5 54C68.3 46.4 56.6667 46.8333 51.5 48C53.6667 43.5 57.9 34.2 57.5 33C33.5 34.5 38.7 53.3 37.5 52.5C36 51.5 31.5 49 23.5 48.5Z" fill="#408D47"/>
<path d="M23.5 48.5C17.1 48.1 11.5 54.3333 9.5 57.5C11.6667 58.6667 17.8 61.1 25 61.5C21.1667 65.3333 14.5 75 18.5 83C25.6667 77.5 40 66.4 40 66C40.5 65.6667 41.8 64.4 43 62C44.1667 62.3514 47.2 62.8434 50 62C57.8333 59.6667 73.5 54.8 73.5 54C68.3 46.4 56.6667 46.8333 51.5 48C53.6667 43.5 57.9 34.2 57.5 33C33.5 34.5 38.7 53.3 37.5 52.5C36 51.5 31.5 49 23.5 48.5Z" fill="url(#paint0_linear)"/>
<path d="M64.5 70C64.1 71.2 77.6667 74.8333 84.5 76.5C86 76.8333 89.3 77.4 90.5 77C91.3333 78 93.1 80 93.5 80L111 95C115 85 109.667 78.1667 106.5 76C112.9 75.6 117.833 73.5 119.5 72.5C111.5 61.3 100.5 64.5 96 67.5C94 49 79 51.5 77.5 51.5C76.3 51.5 80.6667 59.8333 83 64C74 60 65 68.5 64.5 70Z" fill="#408D47"/>
<path d="M64.5 70C64.1 71.2 77.6667 74.8333 84.5 76.5C86 76.8333 89.3 77.4 90.5 77C91.3333 78 93.1 80 93.5 80L111 95C115 85 109.667 78.1667 106.5 76C112.9 75.6 117.833 73.5 119.5 72.5C111.5 61.3 100.5 64.5 96 67.5C94 49 79 51.5 77.5 51.5C76.3 51.5 80.6667 59.8333 83 64C74 60 65 68.5 64.5 70Z" fill="url(#paint1_linear)"/>
<path d="M23.5 48.5C17.1 48.1 11.5 54.3333 9.5 57.5C11.6667 58.6667 17.8 61.1 25 61.5C21.1667 65.3333 14.5 75 18.5 83C25.6667 77.5 40 66.4 40 66C40.5 65.6667 41.8 64.4 43 62C44.1667 62.3514 47.2 62.8434 50 62C57.8333 59.6667 73.5 54.8 73.5 54C68.3 46.4 56.6667 46.8333 51.5 48C53.6667 43.5 57.9 34.2 57.5 33C33.5 34.5 38.7 53.3 37.5 52.5C36 51.5 31.5 49 23.5 48.5Z" stroke="black" stroke-width="2"/>
<path d="M64.5 70C64.1 71.2 77.6667 74.8333 84.5 76.5C86 76.8333 89.3 77.4 90.5 77C91.3333 78 93.1 80 93.5 80L111 95C115 85 109.667 78.1667 106.5 76C112.9 75.6 117.833 73.5 119.5 72.5C111.5 61.3 100.5 64.5 96 67.5C94 49 79 51.5 77.5 51.5C76.3 51.5 80.6667 59.8333 83 64C74 60 65 68.5 64.5 70Z" stroke="black" stroke-width="2"/>
<path d="M90 33.5C91.6 22.7 99.5 19.5 105.5 20C111.978 20.5398 120.2 27 119 37C117.8 47 107.5 49.1667 102.5 49C97.6667 48.3333 88.4 44.3 90 33.5Z" fill="#FFF511"/>
<path d="M90 33.5C91.6 22.7 99.5 19.5 105.5 20C111.978 20.5398 120.2 27 119 37C117.8 47 107.5 49.1667 102.5 49C97.6667 48.3333 88.4 44.3 90 33.5Z" fill="url(#paint2_linear)"/>
<path d="M90 33.5C91.6 22.7 99.5 19.5 105.5 20C111.978 20.5398 120.2 27 119 37C117.8 47 107.5 49.1667 102.5 49C97.6667 48.3333 88.4 44.3 90 33.5Z" stroke="black" stroke-width="2"/>
<path d="M67 92.5C61.3333 92.1 53.3056 93.3333 50 94C49.6 88.4 45 72 40 66C41.2 65.2 42.5 63 43 62C45 62.8 48.5 62.3333 50 62C54.8796 66.8333 65.1111 79.7 67 92.5Z" fill="#8F520A"/>
<path d="M87 96.5C82.6 94.1 75.5 93.1667 72.5 93C75.3 85.8 81.3333 79 84 76.5C85.5781 77.2891 89.3355 77.1442 90.3591 77.048C90.3809 77.0168 90.4268 77 90.5 77C90.7109 77 90.6327 77.0222 90.3591 77.048C90.1421 77.3577 92.2887 79.0915 93.5 80C90.7 80 88 91 87 96.5Z" fill="#8F520A"/>
<path d="M50 94C53.3056 93.3333 61.3333 92.1 67 92.5C65.1111 79.7 54.8796 66.8333 50 62C48.5 62.3333 45 62.8 43 62C42.5 63 41.2 65.2 40 66C45 72 49.6 88.4 50 94ZM72.5 93C75.5 93.1667 82.6 94.1 87 96.5C88 91 90.7 80 93.5 80C92.1667 79 89.7 77 90.5 77C91.5 77 86 77.5 84 76.5C81.3333 79 75.3 85.8 72.5 93Z" stroke="black" stroke-width="2"/>
<path d="M76.5 85.5C78.8333 87.8333 84.4 92.2 88 91M80.5 80C82.6667 82.1667 87.6 86.2 90 85M49 89.5C54.5 89.5 65.5 88.9 65.5 86.5M46.5 80.5C51.1667 80.3333 60.5 79.2 60.5 76M44 73C48.3333 72.6667 56.7 71.3 55.5 68.5M41.5 68C44.8333 67.6667 51.6 66.5 52 64.5" stroke="black" stroke-width="2"/>
<path d="M106.5 108C60.5 70.5 24 108 22.5 108C22.9 109.2 28 111.5 32.5 112.5C40.5 112.5 43 108.5 49 112.5C60.5 120.167 65 115.722 67.5 113.5C72 109.5 77.0825 105.227 87 112.5C94.5 118 103.667 111.333 106.5 108Z" fill="#E0D788"/>
<path d="M19.5 108.5C20 108.333 21.3 108 22.5 108M22.5 108C24 108 60.5 70.5 106.5 108M22.5 108C22.9 109.2 28 111.5 32.5 112.5C40.5 112.5 43 108.5 49 112.5C60.5 120.167 65 115.722 67.5 113.5C72 109.5 77.0825 105.227 87 112.5C94.5 118 103.667 111.333 106.5 108M106.5 108C108.333 108.333 112.4 109.6 114 112" stroke="black" stroke-width="2"/>
<path d="M114 112C73.2 142 34.5 122.167 20 108.5C20.3333 108.333 20.5 108 22.5 108C22.9 109.2 28 111.5 32.5 112.5C40.5 112.5 43 108.5 49 112.5C60.5 120.167 65 115.722 67.5 113.5C72 109.5 77.0825 105.227 87 112.5C94.5 118 103.667 111.333 106.5 108C108 108.333 111.6 109.6 114 112Z" fill="#65DDED" stroke="black" stroke-width="2"/>
<defs>
<linearGradient id="paint0_linear" x1="64.5" y1="20" x2="64.5" y2="113" gradientUnits="userSpaceOnUse">
<stop stop-color="#4DFF0E"/>
<stop offset="1" stop-color="white" stop-opacity="0"/>
<stop offset="1" stop-color="white" stop-opacity="0"/>
</linearGradient>
<linearGradient id="paint1_linear" x1="64.5" y1="20" x2="64.5" y2="113" gradientUnits="userSpaceOnUse">
<stop stop-color="#4DFF0E"/>
<stop offset="1" stop-color="white" stop-opacity="0"/>
<stop offset="1" stop-color="white" stop-opacity="0"/>
</linearGradient>
<linearGradient id="paint2_linear" x1="105" y1="12.5" x2="104.467" y2="49.0087" gradientUnits="userSpaceOnUse">
<stop stop-color="white"/>
<stop offset="0.921875" stop-color="white" stop-opacity="0.078125"/>
<stop offset="1" stop-color="#FAC02C" stop-opacity="0.37"/>
</linearGradient>
</defs>
</svg>
